# Blender 3.6.2
# www.blender.org
mtllib test walls.mtl
o blank_wall
v -2.000000 -0.982458 0.095187
v -2.000000 5.017542 0.095187
v -2.000000 -0.982458 -0.095187
v -2.000000 5.017542 -0.095187
v 2.000000 -0.982458 0.095187
v 2.000000 5.017542 0.095187
v 2.000000 -0.982458 -0.095187
v 2.000000 5.017542 -0.095187
vn -1.0000 -0.0000 -0.0000
vn -0.0000 -0.0000 -1.0000
vn 1.0000 -0.0000 -0.0000
vn -0.0000 -0.0000 1.0000
vn -0.0000 -1.0000 -0.0000
vn -0.0000 1.0000 -0.0000
vt 0.375000 0.000000
vt 0.625000 0.000000
vt 0.625000 0.250000
vt 0.375000 0.250000
vt 0.625000 0.500000
vt 0.375000 0.500000
vt 0.625000 0.750000
vt 0.375000 0.750000
vt 0.625000 1.000000
vt 0.375000 1.000000
vt 0.125000 0.500000
vt 0.125000 0.750000
vt 0.875000 0.500000
vt 0.875000 0.750000
s 0
f 1/1/1 2/2/1 4/3/1 3/4/1
f 3/4/2 4/3/2 8/5/2 7/6/2
f 7/6/3 8/5/3 6/7/3 5/8/3
f 5/8/4 6/7/4 2/9/4 1/10/4
f 3/11/5 7/6/5 5/8/5 1/12/5
f 8/5/6 4/13/6 2/14/6 6/7/6
o wall_with_door
v -7.000000 -0.982458 0.095187
v -7.000000 5.017542 0.095187
v -7.000000 -0.982458 -0.095187
v -7.000000 5.017542 -0.095187
v -3.000000 -0.982458 0.095187
v -3.000000 5.017542 0.095187
v -3.000000 -0.982458 -0.095187
v -3.000000 5.017542 -0.095187
v -3.991825 3.658684 -0.095187
v -6.008175 3.658684 -0.095187
v -6.008175 -0.978919 -0.095187
v -3.991825 -0.978919 -0.095187
v -6.008175 3.658684 0.095187
v -3.991825 3.658684 0.095187
v -6.008175 -0.978919 0.095187
v -3.991825 -0.978919 0.095187
vn -1.0000 -0.0000 -0.0000
vn -0.0000 -0.0000 -1.0000
vn 1.0000 -0.0000 -0.0000
vn -0.0000 -0.0000 1.0000
vn -0.0000 -1.0000 -0.0000
vn -0.0000 1.0000 -0.0000
vt 0.375000 0.000000
vt 0.625000 0.000000
vt 0.625000 0.250000
vt 0.375000 0.250000
vt 0.625000 0.500000
vt 0.375000 0.500000
vt 0.375147 0.438011
vt 0.568381 0.438011
vt 0.568381 0.311989
vt 0.375147 0.311989
vt 0.625000 0.750000
vt 0.375000 0.750000
vt 0.375147 0.811989
vt 0.625000 1.000000
vt 0.375000 1.000000
vt 0.375147 0.938011
vt 0.568381 0.938011
vt 0.568381 0.811989
vt 0.125000 0.500000
vt 0.125000 0.750000
vt 0.875000 0.500000
vt 0.875000 0.750000
vt 0.375000 0.113198
vt 0.375000 0.136802
vt 0.625000 0.136802
vt 0.625000 0.113198
vt 0.375000 0.613198
vt 0.375000 0.636802
vt 0.625000 0.636802
vt 0.625000 0.613198
vt 0.125000 0.613198
vt 0.125000 0.636802
vt 0.875000 0.613198
vt 0.875000 0.636802
s 0
f 9/15/7 10/16/7 12/17/7 11/18/7
f 11/18/8 12/17/8 16/19/8 15/20/8 20/21/8 17/22/8 18/23/8 19/24/8
f 15/20/8 11/18/8 19/24/8 20/21/8
f 15/20/9 16/19/9 14/25/9 13/26/9
f 24/27/10 13/26/10 14/25/10 10/28/10 9/29/10 23/30/10 21/31/10 22/32/10
f 23/30/10 9/29/10 13/26/10 24/27/10
f 11/33/11 15/20/11 13/26/11 9/34/11
f 16/19/12 12/35/12 10/36/12 14/25/12
f 23/37/9 19/38/9 18/39/9 21/40/9
f 20/41/7 24/42/7 22/43/7 17/44/7
f 24/42/12 20/41/12 19/45/12 23/46/12
f 18/47/11 17/44/11 22/43/11 21/48/11
